<svg width="509" height="261" viewBox="0 0 509 261" fill="none" xmlns="http://www.w3.org/2000/svg">
<path d="M3.95893 89.6846C3.95893 89.6846 -0.956598 90.9485 0.166941 96.9875C1.21996 102.648 7.32948 101.763 7.18904 101.903C24.2853 100.137 54.3158 91.1921 72.5001 91C75.028 91 78.9602 91.2809 82.4156 95.5637C82.8127 96.0559 84.5779 98.4434 84.7183 102.095C85.453 121.195 37.3828 150.687 37.3828 150.687C29.8899 155.883 31.293 166.466 37.0525 170.91C59.5233 188.248 71.9328 191.745 87.8029 195.157C102.83 198.387 120.386 195.157 131.902 176.759C148.053 153.586 155.553 108.382 154.654 98.9534C153.035 81.9817 143.137 69.1803 125.442 66.7925C81.8613 60.912 3.95893 89.6846 3.95893 89.6846Z" fill="#006FAC"/>
<path d="M22.4964 147.496C17.5 150 12.737 143.5 17.9971 139.998C23.2571 136.495 34.5 131.5 32.3024 127.724C29.2621 122.5 15.4943 132.515 15.4943 132.515C11.9943 134.495 10 133.5 8 129.5C6.5 126.5 4.0056 118.997 4 117C3.99147 113.959 4.49426 112.208 14.6747 109.529C23.1573 107.296 50.6227 102.243 53.5158 101.939C61.9984 101.047 66.5905 105.584 65.1281 110.87C61.5262 123.888 22.4964 147.496 22.4964 147.496Z" fill="#006FAC"/>
<path d="M199.618 124.18C192.478 124.18 187.885 119.642 187.885 113.665C187.885 107.688 192.644 103.316 200.06 103.316C204.764 103.316 208.306 104.866 210.575 107.91V106.471C210.52 100.328 206.093 97.3392 200.171 97.3392C195.854 97.3392 192.423 98.8335 189.601 101.601V94.0187C192.589 91.8049 196.74 89.8679 202.717 89.8679C213.177 89.8679 219.43 95.4576 219.43 105.641V123.129H210.631V118.812C208.417 122.354 204.598 124.18 199.618 124.18ZM203.16 118.369C207.532 118.369 210.631 116.156 210.631 113.167C210.631 110.345 207.698 108.242 203.326 108.242C198.953 108.242 196.463 110.345 196.463 113.278C196.463 116.266 198.953 118.369 203.16 118.369ZM227.113 123.129V91.1962H236.024V98.2247C237.905 92.4691 241.392 89.8679 246.76 89.8679C252.018 89.8679 255.67 92.8011 257.109 97.8926C258.935 92.4691 262.588 89.8679 268.122 89.8679C275.538 89.8679 279.634 94.7934 279.634 103.593V123.129H270.613V105.53C270.613 100.383 268.565 97.5052 264.525 97.5052C260.153 97.5052 257.884 100.826 257.884 105.53V123.129H248.918V104.755C248.918 100.383 246.815 97.5052 242.831 97.5052C238.569 97.5052 236.079 101.158 236.079 106.471V123.129H227.113ZM287.428 133.644V91.1962H296.394V98.8335C298.386 93.4099 302.98 89.8679 310.008 89.8679C319.029 89.8679 324.895 97.2285 324.895 106.803C324.895 117.152 318.088 124.07 309.51 124.07C303.367 124.07 298.829 121.303 296.394 116.488V133.644H287.428ZM305.802 116.709C311.779 116.709 315.487 112.558 315.487 106.969C315.487 101.435 311.89 97.2285 305.968 97.2285C300.046 97.2285 296.338 101.49 296.338 107.135C296.338 112.614 299.88 116.709 305.802 116.709ZM331.262 123.129V83.2822H340.227V123.129H331.262ZM348.61 123.129V92.1923H357.631V123.129H348.61ZM353.149 89.6466C350.105 89.6466 347.891 87.7649 347.891 85.2745C347.891 82.7841 350.16 81.0131 353.149 81.0131C356.137 81.0131 358.351 82.7841 358.351 85.2745C358.351 87.7649 356.137 89.6466 353.149 89.6466ZM371.381 123.129V101.933H362.859V95.2915H371.381V94.5167C370.939 86.3814 375.92 81.9539 384.885 81.9539C388.482 81.9539 391.249 82.7287 393.131 83.8909V90.366C391.471 89.2038 389.257 88.7058 386.767 88.7058C381.897 88.7058 380.126 90.9748 380.292 94.5721L380.347 95.2915H392.356V101.933H380.402V123.129H371.381ZM397.669 123.129V92.1923H406.69V123.129H397.669ZM402.207 89.6466C399.163 89.6466 396.95 87.7649 396.95 85.2745C396.95 82.7841 399.219 81.0131 402.207 81.0131C405.196 81.0131 407.409 82.7841 407.409 85.2745C407.409 87.7649 405.196 89.6466 402.207 89.6466ZM432.409 124.07C420.621 124.07 412.928 116.986 412.928 106.747C412.928 97.3392 419.68 89.8679 431.081 89.8679C441.706 89.8679 447.462 95.6789 447.462 105.198V108.574H421.949C422.945 113.721 427.373 116.764 434.456 116.764C439.271 116.764 443.367 115.104 446.411 112.835V119.974C443.09 122.409 437.888 124.07 432.409 124.07ZM422.115 103.648H439.825C439.437 99.3869 436.393 96.9518 431.247 96.9518C426.044 96.9518 423.001 99.7189 422.115 103.648ZM467.06 124.07C457.984 124.07 451.952 116.709 451.952 107.024C451.952 96.8965 458.759 89.8679 467.835 89.8679C473.923 89.8679 478.129 92.7458 480.453 97.8373V83.2822H489.474V123.129H480.453V115.824C478.184 120.805 473.757 124.07 467.06 124.07ZM470.768 116.709C476.745 116.709 480.564 112.448 480.564 106.803C480.564 101.269 476.856 97.2285 470.879 97.2285C465.013 97.2285 461.305 101.324 461.305 106.969C461.305 112.614 465.013 116.709 470.768 116.709ZM199.618 178.18C192.478 178.18 187.885 173.642 187.885 167.665C187.885 161.688 192.644 157.316 200.06 157.316C204.764 157.316 208.306 158.866 210.575 161.91V160.471C210.52 154.328 206.093 151.339 200.171 151.339C195.854 151.339 192.423 152.833 189.601 155.601V148.019C192.589 145.805 196.74 143.868 202.717 143.868C213.177 143.868 219.43 149.458 219.43 159.641V177.129H210.631V172.812C208.417 176.354 204.598 178.18 199.618 178.18ZM203.16 172.369C207.532 172.369 210.631 170.156 210.631 167.167C210.631 164.345 207.698 162.242 203.326 162.242C198.953 162.242 196.463 164.345 196.463 167.278C196.463 170.266 198.953 172.369 203.16 172.369ZM244.325 178.07C232.15 178.07 225.066 170.488 225.066 160.913C225.066 151.284 232.426 143.868 244.602 143.868C250.634 143.868 254.508 145.584 257.164 147.576V155.103C254.674 153.055 251.077 151.395 246.483 151.395C238.957 151.395 234.474 155.435 234.474 160.913C234.474 166.282 238.625 170.543 246.649 170.543C250.966 170.543 254.785 168.883 257.33 167.001V174.196C253.733 176.686 249.527 178.07 244.325 178.07ZM280.752 178.07C268.576 178.07 261.492 170.488 261.492 160.913C261.492 151.284 268.853 143.868 281.028 143.868C287.061 143.868 290.935 145.584 293.591 147.576V155.103C291.101 153.055 287.504 151.395 282.91 151.395C275.383 151.395 270.901 155.435 270.901 160.913C270.901 166.282 275.051 170.543 283.076 170.543C287.393 170.543 291.211 168.883 293.757 167.001V174.196C290.16 176.686 285.954 178.07 280.752 178.07ZM317.4 178.07C305.612 178.07 297.919 170.986 297.919 160.747C297.919 151.339 304.671 143.868 316.072 143.868C326.697 143.868 332.453 149.679 332.453 159.198V162.574H306.94C307.936 167.721 312.364 170.764 319.447 170.764C324.262 170.764 328.358 169.104 331.401 166.835V173.974C328.081 176.409 322.879 178.07 317.4 178.07ZM307.106 157.648H324.816C324.428 153.387 321.384 150.952 316.238 150.952C311.035 150.952 307.992 153.719 307.106 157.648ZM352.605 178.07C347.015 178.07 341.591 176.631 337.275 173.753V166.724C341.315 169.824 346.738 171.484 351.885 171.484C356.036 171.484 358.084 170.156 358.084 167.997C358.084 166.724 357.586 165.341 354.21 164.455L347.126 162.795C340.042 161.024 337.441 157.98 337.441 153.608C337.441 147.853 343.086 143.868 352.328 143.868C358.194 143.868 362.622 145.473 365.61 147.41V154.217C362.511 152.114 358.194 150.454 353.103 150.454C348.675 150.454 346.572 151.671 346.572 153.553C346.572 155.269 348.011 156.099 351.387 156.873L357.807 158.257C363.784 159.475 367.381 162.131 367.381 167.721C367.381 173.919 361.958 178.07 352.605 178.07ZM387.14 178.07C381.55 178.07 376.127 176.631 371.81 173.753V166.724C375.85 169.824 381.273 171.484 386.42 171.484C390.571 171.484 392.619 170.156 392.619 167.997C392.619 166.724 392.121 165.341 388.745 164.455L381.661 162.795C374.577 161.024 371.976 157.98 371.976 153.608C371.976 147.853 377.621 143.868 386.863 143.868C392.729 143.868 397.157 145.473 400.145 147.41V154.217C397.046 152.114 392.729 150.454 387.638 150.454C383.21 150.454 381.107 151.671 381.107 153.553C381.107 155.269 382.546 156.099 385.922 156.873L392.342 158.257C398.319 159.475 401.916 162.131 401.916 167.721C401.916 173.919 396.493 178.07 387.14 178.07Z" fill="#113356"/>
</svg>
