<svg width="510" height="261" viewBox="0 0 510 261" fill="none" xmlns="http://www.w3.org/2000/svg">
<path d="M4.6855 89.6846C4.6855 89.6846 -0.230035 90.9485 0.893504 96.9875C1.94652 102.648 8.05604 101.763 7.9156 101.903C25.0119 100.137 55.0423 91.1921 73.2266 91C75.7546 91 79.6868 91.2809 83.1422 95.5637C83.5393 96.0559 85.3045 98.4434 85.4449 102.095C86.1795 121.195 38.1093 150.687 38.1093 150.687C30.6165 155.883 32.0196 166.466 37.7791 170.91C60.2498 188.248 72.6594 191.745 88.5294 195.157C103.557 198.387 121.112 195.157 132.628 176.759C148.779 153.586 156.28 108.382 155.381 98.9534C153.761 81.9817 143.863 69.1803 126.168 66.7925C82.5879 60.912 4.6855 89.6846 4.6855 89.6846Z" fill="white"/>
<path d="M23.223 147.496C18.2265 150 13.4636 143.5 18.7236 139.998C23.9837 136.495 35.2265 131.5 33.029 127.724C29.9886 122.5 16.2208 132.515 16.2208 132.515C12.7208 134.495 10.7266 133.5 8.72656 129.5C7.22656 126.5 4.73217 118.997 4.72656 117C4.71803 113.959 5.22082 112.208 15.4013 109.529C23.8838 107.296 51.3492 102.243 54.2424 101.939C62.725 101.047 67.3171 105.584 65.8546 110.87C62.2528 123.888 23.223 147.496 23.223 147.496Z" fill="white"/>
<path d="M200.344 124.18C193.205 124.18 188.611 119.642 188.611 113.665C188.611 107.688 193.371 103.316 200.787 103.316C205.491 103.316 209.033 104.866 211.302 107.91V106.471C211.247 100.328 206.819 97.3392 200.898 97.3392C196.581 97.3392 193.15 98.8335 190.327 101.601V94.0187C193.316 91.8049 197.466 89.8679 203.443 89.8679C213.903 89.8679 220.157 95.4576 220.157 105.641V123.129H211.357V118.812C209.144 122.354 205.325 124.18 200.344 124.18ZM203.886 118.369C208.258 118.369 211.357 116.156 211.357 113.167C211.357 110.345 208.424 108.242 204.052 108.242C199.68 108.242 197.19 110.345 197.19 113.278C197.19 116.266 199.68 118.369 203.886 118.369ZM227.84 123.129V91.1962H236.75V98.2247C238.632 92.4691 242.118 89.8679 247.487 89.8679C252.744 89.8679 256.397 92.8011 257.836 97.8926C259.662 92.4691 263.315 89.8679 268.849 89.8679C276.265 89.8679 280.36 94.7934 280.36 103.593V123.129H271.339V105.53C271.339 100.383 269.292 97.5052 265.252 97.5052C260.88 97.5052 258.61 100.826 258.61 105.53V123.129H249.645V104.755C249.645 100.383 247.542 97.5052 243.557 97.5052C239.296 97.5052 236.805 101.158 236.805 106.471V123.129H227.84ZM288.155 133.644V91.1962H297.12V98.8335C299.113 93.4099 303.706 89.8679 310.735 89.8679C319.756 89.8679 325.622 97.2285 325.622 106.803C325.622 117.152 318.815 124.07 310.237 124.07C304.094 124.07 299.555 121.303 297.12 116.488V133.644H288.155ZM306.529 116.709C312.506 116.709 316.214 112.558 316.214 106.969C316.214 101.435 312.616 97.2285 306.695 97.2285C300.773 97.2285 297.065 101.49 297.065 107.135C297.065 112.614 300.607 116.709 306.529 116.709ZM331.988 123.129V83.2822H340.954V123.129H331.988ZM349.337 123.129V92.1923H358.358V123.129H349.337ZM353.875 89.6466C350.831 89.6466 348.618 87.7649 348.618 85.2745C348.618 82.7841 350.887 81.0131 353.875 81.0131C356.864 81.0131 359.077 82.7841 359.077 85.2745C359.077 87.7649 356.864 89.6466 353.875 89.6466ZM372.108 123.129V101.933H363.585V95.2915H372.108V94.5167C371.665 86.3814 376.646 81.9539 385.612 81.9539C389.209 81.9539 391.976 82.7287 393.858 83.8909V90.366C392.197 89.2038 389.984 88.7058 387.493 88.7058C382.623 88.7058 380.852 90.9748 381.018 94.5721L381.073 95.2915H393.083V101.933H381.129V123.129H372.108ZM398.396 123.129V92.1923H407.417V123.129H398.396ZM402.934 89.6466C399.89 89.6466 397.676 87.7649 397.676 85.2745C397.676 82.7841 399.945 81.0131 402.934 81.0131C405.922 81.0131 408.136 82.7841 408.136 85.2745C408.136 87.7649 405.922 89.6466 402.934 89.6466ZM433.135 124.07C421.347 124.07 413.655 116.986 413.655 106.747C413.655 97.3392 420.407 89.8679 431.807 89.8679C442.433 89.8679 448.189 95.6789 448.189 105.198V108.574H422.676C423.672 113.721 428.099 116.764 435.183 116.764C439.998 116.764 444.093 115.104 447.137 112.835V119.974C443.817 122.409 438.614 124.07 433.135 124.07ZM422.842 103.648H440.551C440.164 99.3869 437.12 96.9518 431.973 96.9518C426.771 96.9518 423.727 99.7189 422.842 103.648ZM467.787 124.07C458.711 124.07 452.678 116.709 452.678 107.024C452.678 96.8965 459.485 89.8679 468.562 89.8679C474.649 89.8679 478.855 92.7458 481.18 97.8373V83.2822H490.201V123.129H481.18V115.824C478.911 120.805 474.483 124.07 467.787 124.07ZM471.495 116.709C477.472 116.709 481.29 112.448 481.29 106.803C481.29 101.269 477.582 97.2285 471.605 97.2285C465.739 97.2285 462.031 101.324 462.031 106.969C462.031 112.614 465.739 116.709 471.495 116.709ZM200.344 178.18C193.205 178.18 188.611 173.642 188.611 167.665C188.611 161.688 193.371 157.316 200.787 157.316C205.491 157.316 209.033 158.866 211.302 161.91V160.471C211.247 154.328 206.819 151.339 200.898 151.339C196.581 151.339 193.15 152.833 190.327 155.601V148.019C193.316 145.805 197.466 143.868 203.443 143.868C213.903 143.868 220.157 149.458 220.157 159.641V177.129H211.357V172.812C209.144 176.354 205.325 178.18 200.344 178.18ZM203.886 172.369C208.258 172.369 211.357 170.156 211.357 167.167C211.357 164.345 208.424 162.242 204.052 162.242C199.68 162.242 197.19 164.345 197.19 167.278C197.19 170.266 199.68 172.369 203.886 172.369ZM245.052 178.07C232.876 178.07 225.792 170.488 225.792 160.913C225.792 151.284 233.153 143.868 245.328 143.868C251.361 143.868 255.235 145.584 257.891 147.576V155.103C255.401 153.055 251.803 151.395 247.21 151.395C239.683 151.395 235.201 155.435 235.201 160.913C235.201 166.282 239.351 170.543 247.376 170.543C251.693 170.543 255.511 168.883 258.057 167.001V174.196C254.46 176.686 250.254 178.07 245.052 178.07ZM281.478 178.07C269.303 178.07 262.219 170.488 262.219 160.913C262.219 151.284 269.58 143.868 281.755 143.868C287.787 143.868 291.661 145.584 294.318 147.576V155.103C291.827 153.055 288.23 151.395 283.637 151.395C276.11 151.395 271.627 155.435 271.627 160.913C271.627 166.282 275.778 170.543 283.803 170.543C288.119 170.543 291.938 168.883 294.484 167.001V174.196C290.887 176.686 286.68 178.07 281.478 178.07ZM318.126 178.07C306.338 178.07 298.646 170.986 298.646 160.747C298.646 151.339 305.398 143.868 316.798 143.868C327.424 143.868 333.18 149.679 333.18 159.198V162.574H307.667C308.663 167.721 313.09 170.764 320.174 170.764C324.989 170.764 329.084 169.104 332.128 166.835V173.974C328.807 176.409 323.605 178.07 318.126 178.07ZM307.833 157.648H325.542C325.155 153.387 322.111 150.952 316.964 150.952C311.762 150.952 308.718 153.719 307.833 157.648ZM353.331 178.07C347.742 178.07 342.318 176.631 338.001 173.753V166.724C342.041 169.824 347.465 171.484 352.612 171.484C356.762 171.484 358.81 170.156 358.81 167.997C358.81 166.724 358.312 165.341 354.936 164.455L347.852 162.795C340.768 161.024 338.167 157.98 338.167 153.608C338.167 147.853 343.812 143.868 353.055 143.868C358.921 143.868 363.348 145.473 366.337 147.41V154.217C363.238 152.114 358.921 150.454 353.829 150.454C349.402 150.454 347.299 151.671 347.299 153.553C347.299 155.269 348.738 156.099 352.114 156.873L358.533 158.257C364.51 159.475 368.108 162.131 368.108 167.721C368.108 173.919 362.684 178.07 353.331 178.07ZM387.866 178.07C382.277 178.07 376.853 176.631 372.536 173.753V166.724C376.576 169.824 382 171.484 387.147 171.484C391.298 171.484 393.345 170.156 393.345 167.997C393.345 166.724 392.847 165.341 389.471 164.455L382.387 162.795C375.304 161.024 372.702 157.98 372.702 153.608C372.702 147.853 378.347 143.868 387.59 143.868C393.456 143.868 397.883 145.473 400.872 147.41V154.217C397.773 152.114 393.456 150.454 388.364 150.454C383.937 150.454 381.834 151.671 381.834 153.553C381.834 155.269 383.273 156.099 386.649 156.873L393.069 158.257C399.046 159.475 402.643 162.131 402.643 167.721C402.643 173.919 397.219 178.07 387.866 178.07Z" fill="white"/>
</svg>
